<svg xmlns="http://www.w3.org/2000/svg" viewBox="0 0 135.63 81.07"><defs><style>.cls-1{fill:#1d3f6b;}.cls-2{fill:#e3253f;}.cls-3{fill:#0e6faf;}</style></defs><title>Recurso 2</title><g id="Capa_2" data-name="Capa 2"><g id="Layer_1" data-name="Layer 1"><path class="cls-1" d="M135.63,81.07l-3.75-6.48c-11.34,2.83-18.73,5.55-24,6.48Z"/><path class="cls-2" d="M42.36,7.13c4.4,2.4,8.29,4.41,11.73,6.07L46.48,0Z"/><path class="cls-2" d="M40.72,18.54C49.15,19.85,53.34,20,59,21.64l-3.59-6.22c-5-1.87-10.12-3.77-14.76-5.28l-4.51,7.8c1.52.17,3.06.36,4.61.6"/><path class="cls-2" d="M34.5,20.75l-2.6,4.49c8.24,2.74,9.58-.79,14.06,1.4,0,0-8.39,3.15-15.07,1.72l-.7-.14-2.28,3.94c17.89,4,27.8-2.89,33.22-4.94a7.5,7.5,0,0,1,.89-.28l-1.5-2.62C50,19.35,43.9,23,34.5,20.75"/><path class="cls-2" d="M76,22.26l-2.69,4.67c10.57,2.87,20.55.73,30-1.89l-3.73-6.46c-8.22,2.9-16,5.17-23.58,3.68"/><path class="cls-2" d="M77.06,20.36A36,36,0,0,0,87,19c4.4-1.1,6.76-3.26,9.84-5.13L88.82,0Z"/><path class="cls-3" d="M53,61.69a55.88,55.88,0,0,0,10.51-1.14c6.3-1.28,10.39-3.22,15-5.19L73,45.78a106.47,106.47,0,0,1-12,2.16Z"/><path class="cls-1" d="M91.42,77.59,80,57.87c-2.34.79-4.48,1.67-7.38,2.41A92.54,92.54,0,0,1,52.16,63.2l-3.79,6.5c9,.55,22,3.08,43.05,7.89"/><path class="cls-1" d="M46.51,73l-4.66,8.07H93.4C79.71,79.36,61.35,74.94,46.51,73"/><path class="cls-3" d="M62.71,44.69a81.84,81.84,0,0,0,8.47-2.09l-3.56-6.17Z"/><path class="cls-1" d="M96.74,78.62c11.46,1.49,21.51-2.9,32.78-8.12l-3.81-6.61c-8.78,1.12-9.93,2.77-19.66,2.31-6.42-.31-7.93-1.45-7.93-1.45a65.61,65.61,0,0,0,12.81-2.16,48.76,48.76,0,0,1,12.59-2.5l-6.15-10.64c-12.73-.33-26.93,4.37-33.56,6.89Z"/><polygon class="cls-1" points="80 57.87 80 57.87 80.49 58.71 91.42 77.59 91.44 77.59 80 57.87"/><path class="cls-1" d="M42,72.51A91.56,91.56,0,0,0,1.42,78L0,81.07H37Z"/><path class="cls-1" d="M41.69,81.07h.16s4.68-8,4.66-8.06l-.12,0Z"/><path class="cls-1" d="M43.73,69.5l3.64-6.26a93.21,93.21,0,0,1-33.56-6.67L6.19,69.77c4.13,1,11.33,1.19,25.37.15,4.21-.31,8-.51,12.17-.42"/><path class="cls-1" d="M48.32,69.7h0l3.8-6.5H52.1Z"/><path class="cls-3" d="M56,48.4a85.56,85.56,0,0,1-34.8-4.65l-4.84,8.39c7.38,3.55,18.1,8.82,32,9.49Z"/><path class="cls-1" d="M53,61.69H53l1.69-3L60.37,49Z"/><path class="cls-3" d="M52.31,45.91c2-.13,3.76-.3,5.44-.49l7.52-12.93L63.7,29.84c-2,.53-4.36,1.26-7.1,2.24C47.26,35.45,40.29,37.43,26.29,35L23,40.65c10.13,4,16.1,6.19,29.3,5.26"/><path class="cls-3" d="M111.06,38.51c-8.85.24-18.14,1.27-25.89,3.68-1.35.42-5.16,1.54-8.17,2.42l5.31,9.13c4.84-2,13.53-5.21,21.08-6.34a50.66,50.66,0,0,1,12.74-.1Z"/><path class="cls-1" d="M74.44,48.28l4.09,7.08h0Z"/><path class="cls-3" d="M75.14,41.4c7.91-2.44,16-4.9,34.68-5l-5.15-8.92c-5.84,1.62-9.33,3.13-19.5,2.61-5.55-.28-8.56-1.43-12.86-1.46L70,32.49Z"/></g></g></svg>